HIERARCHY
ROOT Bip001_Pelvis
{
  OFFSET 34.4345 95.6767 -26.8758
  CHANNELS 6 Xposition Yposition Zposition Zrotation Xrotation Yrotation
  JOINT Bip001_Spine
  {
    OFFSET 1.4188e-005 10.2191 -0.0116013
    CHANNELS 3 Zrotation Xrotation Yrotation
    JOINT Bip001_L_Thigh
    {
      OFFSET 11.0458 -10.2192 0.0116197
      CHANNELS 3 Zrotation Xrotation Yrotation
      JOINT Bip001_L_Calf
      {
        OFFSET -0.707118 -44.0221 0.360014
        CHANNELS 3 Zrotation Xrotation Yrotation
        JOINT Bip001_L_Foot
        {
          OFFSET -0.651902 -40.5938 -3.56146
          CHANNELS 3 Zrotation Xrotation Yrotation
          JOINT Bip001_L_Toe0
          {
            OFFSET 0.0530839 -10.2181 13.1504
            CHANNELS 3 Zrotation Xrotation Yrotation
            End Site
            {
              OFFSET -1.02532e-005 0 7.55606
            }
          }
        }
      }
    }
    JOINT Bip001_R_Thigh
    {
      OFFSET -11.0458 -10.2191 0.0115893
      CHANNELS 3 Zrotation Xrotation Yrotation
      JOINT Bip001_R_Calf
      {
        OFFSET 0.706994 -44.0221 0.35984
        CHANNELS 3 Zrotation Xrotation Yrotation
        JOINT Bip001_R_Foot
        {
          OFFSET 0.651786 -40.5938 -3.5613
          CHANNELS 3 Zrotation Xrotation Yrotation
          JOINT Bip001_R_Toe0
          {
            OFFSET -0.0531479 -10.2181 13.1504
            CHANNELS 3 Zrotation Xrotation Yrotation
            End Site
            {
              OFFSET -1.02894e-005 0 7.55606
            }
          }
        }
      }
    }
    JOINT Bip001_Spine1
    {
      OFFSET 1.87041e-005 14.5736 1.08638
      CHANNELS 3 Zrotation Xrotation Yrotation
      JOINT Bip001_Spine2
      {
        OFFSET 2.24614e-005 14.5058 -1.69078
        CHANNELS 3 Zrotation Xrotation Yrotation
        JOINT Bip001_Neck
        {
          OFFSET 2.20278e-005 15.3945 -0.489414
          CHANNELS 3 Zrotation Xrotation Yrotation
          JOINT Bip001_L_Clavicle
          {
            OFFSET 6.06036 -0.000579998 0.00836775
            CHANNELS 3 Zrotation Xrotation Yrotation
            JOINT Bip001_L_UpperArm
            {
              OFFSET 11.5509 -0.0600302 0.00193952
              CHANNELS 3 Zrotation Xrotation Yrotation
              JOINT Bip001_L_Forearm
              {
                OFFSET 25.9523 0.0806089 -2.15551
                CHANNELS 3 Zrotation Xrotation Yrotation
                JOINT Bip001_L_Hand
                {
                  OFFSET 32.2475 0.153767 1.63968
                  CHANNELS 3 Zrotation Xrotation Yrotation
                  JOINT Bip001_L_Finger0
                  {
                    OFFSET 6.04639 -2.20976 5.90322
                    CHANNELS 3 Zrotation Xrotation Yrotation
                    End Site
                    {
                      OFFSET 4.22375 -1.43895 0.606485
                    }
                  }
                  JOINT Bip001_L_Finger1
                  {
                    OFFSET 11.0826 -0.704819 -0.198153
                    CHANNELS 3 Zrotation Xrotation Yrotation
                    End Site
                    {
                      OFFSET 6.20027 -0.397518 -0.0787166
                    }
                  }
                }
              }
            }
          }
          JOINT Bip001_R_Clavicle
          {
            OFFSET -6.06037 -0.000563197 0.00835105
            CHANNELS 3 Zrotation Xrotation Yrotation
            JOINT Bip001_R_UpperArm
            {
              OFFSET -11.5509 -0.0599978 0.00190698
              CHANNELS 3 Zrotation Xrotation Yrotation
              JOINT Bip001_R_Forearm
              {
                OFFSET -25.9523 0.0806822 -2.15589
                CHANNELS 3 Zrotation Xrotation Yrotation
                JOINT Bip001_R_Hand
                {
                  OFFSET -32.2475 0.153859 1.63989
                  CHANNELS 3 Zrotation Xrotation Yrotation
                  JOINT Bip001_R_Finger0
                  {
                    OFFSET -6.04641 -2.20976 5.90317
                    CHANNELS 3 Zrotation Xrotation Yrotation
                    End Site
                    {
                      OFFSET -4.22376 -1.43895 0.60647
                    }
                  }
                  JOINT Bip001_R_Finger1
                  {
                    OFFSET -11.0826 -0.704794 -0.198182
                    CHANNELS 3 Zrotation Xrotation Yrotation
                    End Site
                    {
                      OFFSET -6.20028 -0.397504 -0.0787333
                    }
                  }
                }
              }
            }
          }
          JOINT Bip001_Head
          {
            OFFSET 1.09673e-005 11.2744 2.05948
            CHANNELS 3 Zrotation Xrotation Yrotation
            End Site
            {
              OFFSET 2.89576e-005 20.8808 -2.77728e-005
            }
          }
        }
      }
    }
  }
}
MOTION
Frames:	10
Frame Time:	0.04
33.9722 95.8723 -29.3433 -0.0445696 0.803887 0.912328 0.16362 2.06769 0.742262 4.95875 -3.33474 4.39088 -0.104141 8.1889 3.33903 -0.496085 -5.83271 0.0459573 0.989138 -2.9869 -0.764893 -4.64445 -3.12678 -4.79262 0.392202 8.97172 -0.137204 -5.5531 -7.90214 0.141742 2.35194 -7.97453 2.49036 0.286322 4.12804 1.48041 0.285399 4.128 1.48032 12.7985 -15.8474 -4.68565 -37.7987 13.7838 3.70479 -51.6077 39.5191 0.548496 16.5909 -4.36579 -29.496 7.10711 1.35417 -2.4804 3.18055e-015 0 -3.18055e-015 3.18055e-015 3.18056e-015 -3.18055e-015 14.1222 19.0783 4.67064 62.2021 33.0725 -12.4162 -41.1522 21.9929 30.1684 -2.61729 -5.71095 9.56783 6.36111e-015 -4.77083e-015 -7.95139e-016 6.36111e-015 -6.36111e-015 -1.59028e-015 -12.9945 1.43227 0.689481 
33.9299 95.8877 -29.4123 -0.201154 0.790634 0.201091 0.165949 2.08133 0.715007 5.09241 -3.19132 3.91227 -0.129918 8.09368 4.60423 -0.770074 -5.92281 0.0459648 0.939788 -2.92513 -0.708582 -4.51482 -3.16444 -4.55963 0.406493 8.65025 -0.14974 -5.2904 -7.74276 0.640172 2.32022 -7.87466 2.45479 0.303589 4.16454 1.42495 0.304846 4.16456 1.42528 13.044 -16.0246 -4.42088 -38.2522 14.0903 3.39737 -51.0437 38.5895 -0.191545 15.8449 -5.66521 -30.3255 7.95353 0.9035 -2.71893 -9.54166e-015 -3.18055e-015 -0 -6.36111e-015 -3.18056e-015 -0 14.071 18.8907 3.49673 61.9721 38.5786 -10.778 -32.4548 16.0672 21.837 -0.960775 -5.52963 7.84597 3.18055e-015 3.18055e-015 7.95139e-016 6.36111e-015 0 -0 -12.9411 1.56484 0.962151 
33.9518 95.9029 -29.4179 -0.0867437 0.579537 -0.309495 0.140311 2.1416 0.627662 4.83058 -2.69472 4.28414 0.139936 7.58227 4.70009 -0.747012 -5.64326 0.0459421 0.986713 -3.04619 -0.72529 -4.75911 -3.03134 -5.43394 0.412283 8.53883 -0.153234 -4.76146 -7.95029 1.94323 2.23455 -7.64751 2.42229 0.257387 4.28461 1.25138 0.257387 4.28461 1.25138 13.0092 -16.1434 -4.13644 -38.5058 14.4346 2.95789 -50.3553 38.2205 -1.27904 14.396 -7.75144 -30.559 9.22943 0.723492 -2.98622 3.18055e-015 3.18055e-015 -9.54166e-015 3.53113e-031 3.18056e-015 -6.36111e-015 14.9005 18.9611 2.92564 60.312 42.3937 -8.36573 -25.5629 10.0539 14.4626 2.17272 -6.75843 6.89669 -1.76556e-031 6.36111e-015 1.59028e-015 -3.97252e-031 9.54167e-015 2.38542e-015 -12.7026 1.85897 1.18759 
33.939 95.9053 -29.4181 -0.159983 0.495128 -0.792867 0.168763 2.15935 0.564354 4.68209 -2.48415 4.60663 0.48926 7.45252 4.71461 -0.53733 -5.43394 0.0459258 1.01669 -3.26883 -0.697863 -4.80477 -2.9495 -5.88189 0.43319 8.34931 -0.113367 -4.41314 -8.00848 2.81688 2.1725 -7.45452 2.35928 0.316553 4.32026 1.12315 0.316552 4.32027 1.12314 12.5713 -16.0955 -3.87222 -38.2813 14.6842 2.51555 -49.7389 38.4327 -2.40055 13.6678 -8.44504 -30.0099 10.056 0.579891 -3.76349 1.59028e-014 3.18055e-015 -9.54166e-015 9.54166e-015 0 -6.36111e-015 15.7712 19.0139 2.88786 59.4294 43.9194 -6.35804 -22.282 7.67153 9.44 5.07195 -7.68032 6.09204 -1.59028e-015 3.18055e-015 3.97569e-016 -7.95139e-016 3.18056e-015 7.95139e-016 -12.317 2.18179 1.30937 
33.921 95.9155 -29.3949 -0.115489 0.371889 -1.25771 0.155934 2.17363 0.570658 4.56758 -2.11639 4.38409 0.597566 7.13403 5.38973 -0.758366 -5.38318 0.0459219 0.979804 -3.19959 -0.656088 -4.88963 -2.91704 -5.85328 0.473323 8.36733 -0.137096 -4.24244 -8.05616 3.22495 2.13258 -7.34936 2.3468 0.290878 4.3483 1.14249 0.290852 4.34829 1.14328 12.1959 -16.0532 -3.81595 -37.8815 14.8 2.27124 -49.3669 39.0255 -3.52265 13.8163 -7.6077 -29.0376 9.30413 0.0995588 -4.37479 3.18055e-015 -3.18055e-015 3.18055e-015 -3.18055e-015 -9.54167e-015 3.18055e-015 16.4455 19.0468 2.89514 59.1219 42.7164 -5.41267 -21.2228 8.75109 8.05163 5.96607 -7.33034 5.7366 -3.97569e-016 -6.36111e-015 -3.97569e-016 -1.19271e-015 -6.36111e-015 -0 -11.9736 2.28955 1.24386 
33.8991 95.9282 -29.3743 -0.116655 0.290272 -1.26904 0.11908 2.17776 0.573851 4.58644 -1.99319 4.50072 0.682736 7.07171 5.31121 -0.983052 -5.44385 0.0459266 0.885266 -3.08583 -0.587169 -4.8187 -2.87183 -5.71911 0.459622 8.4371 -0.101366 -4.31093 -8.03017 3.09553 2.11866 -7.3016 2.34246 0.217785 4.3549 1.14988 0.217669 4.35491 1.15084 12.114 -16.202 -3.97895 -37.7859 14.9305 2.16713 -49.0348 39.4627 -4.13225 13.5636 -6.5459 -28.8288 9.21149 0.942747 -3.92033 -3.53112e-031 -3.18055e-015 -6.36111e-015 -1.76556e-031 -3.18056e-015 -3.18055e-015 16.6283 19.0972 2.53184 59.3437 40.0427 -5.55722 -21.9722 12.1346 9.2714 4.86069 -6.40786 5.24611 1.98785e-015 -9.54166e-015 -0 2.38542e-015 -3.18056e-015 3.97569e-016 -11.7388 2.36749 1.00832 
33.8527 95.9286 -29.335 -0.280858 0.119246 -1.16285 0.0987769 2.19458 0.57717 4.84828 -1.97471 5.0339 0.639222 7.34693 4.74667 -0.656805 -5.42198 0.0459249 1.10062 -3.27647 -0.799814 -4.52823 -2.66286 -5.33238 0.407888 8.37067 -0.148511 -4.45707 -7.89692 2.74244 2.11868 -7.30518 2.33905 0.175749 4.39003 1.15008 0.175738 4.39004 1.15099 12.049 -16.7166 -4.15523 -37.7734 15.2998 2.447 -48.8754 39.6706 -4.00905 14.39 -3.50459 -28.7848 8.54254 0.744161 -4.12202 3.18055e-015 -9.54166e-015 -6.36111e-015 -3.53113e-031 -6.36111e-015 -3.18055e-015 17.0376 19.283 1.37382 59.5724 38.8768 -6.06705 -23.0465 12.5955 11.0442 3.3943 -5.95502 5.50959 3.18055e-015 -3.18055e-015 -0 2.38542e-015 -3.18056e-015 -0 -11.4376 2.8778 0.759816 
33.8697 95.9395 -29.2733 -0.293529 -0.0217286 -1.11531 0.0508993 2.21152 0.58369 4.92371 -1.80364 5.41508 0.624043 7.31897 4.44558 -0.635749 -5.51372 0.0459319 1.14405 -3.19924 -0.873139 -4.43902 -2.45488 -5.13475 0.380184 8.28734 -0.105567 -4.60972 -7.83319 2.54558 2.14343 -7.37286 2.33664 0.0792799 4.42602 1.16672 0.0792796 4.42602 1.16672 12.1061 -17.2125 -4.24196 -37.814 15.6724 2.70042 -48.805 40.0227 -3.70043 15.0414 -0.959706 -28.6664 8.00566 0.876471 -4.41054 9.54166e-015 0 -3.18055e-015 9.54166e-015 3.18056e-015 -3.18055e-015 17.1408 19.4414 0.300803 60.1694 38.9212 -6.5492 -23.8125 10.3711 11.656 1.74307 -7.3506 5.88966 -1.59028e-015 3.18055e-015 -7.95139e-016 -1.59028e-015 3.18056e-015 -0 -11.386 3.44915 0.681093 
33.9681 95.8513 -29.2398 -0.235354 -0.0597084 -1.10728 0.00313256 2.21634 0.625423 4.9037 -2.00952 5.85556 0.546492 7.84046 3.82908 0.0726561 -5.49674 0.0459306 1.4032 -3.73917 -1.04225 -4.54702 -2.73766 -4.69965 0.474466 9.01912 -0.113615 -4.85556 -8.17507 2.1517 2.17741 -7.454 2.34009 -0.0181401 4.43252 1.25235 -0.0180673 4.4325 1.25225 12.0213 -17.6649 -4.37772 -37.7327 15.9944 3.00184 -48.6453 40.8899 -3.73743 15.3878 0.796583 -27.8122 7.50622 0.928956 -4.67637 -3.18055e-015 -3.18055e-015 1.59028e-015 -3.18055e-015 0 -0 17.0074 19.5947 -0.544161 60.4528 37.8546 -6.38679 -23.9855 8.67109 12.1116 0.476189 -8.02387 6.29896 4.77083e-015 -6.36111e-015 -0 3.18055e-015 -3.18056e-015 -0 -11.2092 3.92522 0.499931 
34.0746 95.8397 -29.2449 -0.2441 -0.134666 -1.02587 -0.0191973 2.25274 0.649047 4.94472 -2.02434 6.22157 0.383606 7.90087 3.46795 0.75179 -5.28985 0.045915 1.73921 -4.32579 -1.34168 -4.55137 -2.77622 -3.96805 0.564621 9.16395 -0.189309 -5.15828 -8.07048 1.50773 2.23565 -7.62206 2.38152 -0.0629798 4.50507 1.29992 -0.0635704 4.50508 1.30045 11.7974 -18.3638 -4.40366 -37.555 16.6305 3.29086 -48.4993 41.4686 -3.66511 15.6174 2.2119 -26.9664 6.82671 1.3505 -4.72732 3.18055e-015 3.18055e-015 1.59028e-015 -3.18055e-015 3.18056e-015 3.18055e-015 17.1765 19.962 -1.63031 59.8333 33.699 -5.91044 -25.1909 10.9305 13.7021 -2.02816 -7.38403 6.42468 1.59028e-015 -6.36111e-015 -1.59028e-015 -2.64834e-031 -9.54167e-015 -1.59028e-015 -10.9837 4.31496 0.349097 
